<?xml version="1.0" encoding="UTF-8" standalone="no"?>
<!DOCTYPE svg PUBLIC "-//W3C//DTD SVG 1.1//EN"
 "http://www.w3.org/Graphics/SVG/1.1/DTD/svg11.dtd">
<!-- Generated by graphviz version 2.38.0 (20140413.2041)
 -->
<!-- Title: G Pages: 1 -->
<svg width="422pt" height="260pt"
 viewBox="0.00 0.00 422.36 260.00" xmlns="http://www.w3.org/2000/svg" xmlns:xlink="http://www.w3.org/1999/xlink">
<g id="graph0" class="graph" transform="scale(1 1) rotate(0) translate(4 256)">
<title>G</title><style>.edge>path:hover{stroke-width:8}</style>
<polygon fill="white" stroke="none" points="-4,4 -4,-256 418.356,-256 418.356,4 -4,4"/>
<!-- game_data -->
<g id="node1" class="node"><title>game_data.py</title><style>.edge>path:hover{stroke-width:8}</style>
<ellipse fill="#ffffff" stroke="black" cx="38.2631" cy="-234" rx="38.0276" ry="18"/>
<text text-anchor="middle" x="38.2631" y="-231.5" font-family="Helvetica,sans-Serif" font-size="10.00" fill="#000000">game_data.py</text>
</g>
<!-- connect_game -->
<g id="node3" class="node"><title>connect_game.py</title><style>.edge>path:hover{stroke-width:8}</style>
<ellipse fill="#ffffff" stroke="black" cx="216.263" cy="-90" rx="47.1863" ry="18"/>
<text text-anchor="middle" x="216.263" y="-87.5" font-family="Helvetica,sans-Serif" font-size="10.00" fill="#000000">connect_game.py</text>
</g>
<!-- game_data&#45;&gt;connect_game -->
<g id="edge5" class="edge"><title>game_data&#45;&gt;connect_game</title><style>.edge>path:hover{stroke-width:8}</style>
<path fill="none" stroke="black" d="M63.1358,-219.983C85.2777,-207.515 117.582,-187.074 140.263,-163"/>
<path fill="none" stroke="black" d="M140.263,-161C155.935,-144.365 174.832,-126.95 189.862,-113.652"/>
<polygon fill="#000000" stroke="black" points="192.558,-115.943 197.769,-106.718 187.943,-110.679 192.558,-115.943"/>
</g>
<!-- game_renderer -->
<g id="node5" class="node"><title>game_renderer.py</title><style>.edge>path:hover{stroke-width:8}</style>
<ellipse fill="#ffffff" stroke="black" cx="216.263" cy="-162" rx="47.8641" ry="18"/>
<text text-anchor="middle" x="216.263" y="-159.5" font-family="Helvetica,sans-Serif" font-size="10.00" fill="#000000">game_renderer.py</text>
</g>
<!-- game_data&#45;&gt;game_renderer -->
<g id="edge7" class="edge"><title>game_data&#45;&gt;game_renderer</title><style>.edge>path:hover{stroke-width:8}</style>
<path fill="none" stroke="black" d="M66.8619,-221.753C96.1104,-210.251 141.838,-192.268 175.003,-179.226"/>
<polygon fill="#000000" stroke="black" points="176.404,-182.436 184.429,-175.519 173.842,-175.922 176.404,-182.436"/>
</g>
<!-- game -->
<g id="node6" class="node"><title>game.py</title><style>.edge>path:hover{stroke-width:8}</style>
<ellipse fill="#ffffff" stroke="black" cx="216.263" cy="-18" rx="27" ry="18"/>
<text text-anchor="middle" x="216.263" y="-15.5" font-family="Helvetica,sans-Serif" font-size="10.00" fill="#000000">game.py</text>
</g>
<!-- game_data&#45;&gt;game -->
<g id="edge6" class="edge"><title>game_data&#45;&gt;game</title><style>.edge>path:hover{stroke-width:8}</style>
<path fill="none" stroke="black" d="M60.5188,-219.248C77.4882,-206.988 98.5616,-187.254 102.263,-163"/>
<path fill="none" stroke="black" d="M102.263,-161C110.416,-107.58 158.504,-62.1907 189.564,-37.9234"/>
<polygon fill="#000000" stroke="black" points="191.979,-40.4849 197.826,-31.6498 187.745,-34.91 191.979,-40.4849"/>
</g>
<!-- events -->
<g id="node2" class="node"><title>events.py</title><style>.edge>path:hover{stroke-width:8}</style>
<ellipse fill="#ffffff" stroke="black" cx="121.263" cy="-234" rx="27.1572" ry="18"/>
<text text-anchor="middle" x="121.263" y="-231.5" font-family="Helvetica,sans-Serif" font-size="10.00" fill="#000000">events.py</text>
</g>
<!-- events&#45;&gt;connect_game -->
<g id="edge2" class="edge"><title>events&#45;&gt;connect_game</title><style>.edge>path:hover{stroke-width:8}</style>
<path fill="none" stroke="black" d="M121.529,-215.846C122.684,-200.164 126.792,-177.298 140.263,-163"/>
</g>
<!-- events&#45;&gt;game_renderer -->
<g id="edge4" class="edge"><title>events&#45;&gt;game_renderer</title><style>.edge>path:hover{stroke-width:8}</style>
<path fill="none" stroke="black" d="M138.688,-220.161C152.156,-210.237 171.105,-196.275 186.903,-184.634"/>
<polygon fill="#000000" stroke="black" points="189.327,-187.195 195.301,-178.446 185.174,-181.56 189.327,-187.195"/>
</g>
<!-- events&#45;&gt;game -->
<g id="edge3" class="edge"><title>events&#45;&gt;game</title><style>.edge>path:hover{stroke-width:8}</style>
<path fill="none" stroke="black" d="M112.848,-216.819C106.52,-202.774 99.3945,-181.797 102.263,-163"/>
</g>
<!-- connect_game&#45;&gt;game -->
<g id="edge1" class="edge"><title>connect_game&#45;&gt;game</title><style>.edge>path:hover{stroke-width:8}</style>
<path fill="none" stroke="black" d="M216.263,-71.6966C216.263,-63.9827 216.263,-54.7125 216.263,-46.1124"/>
<polygon fill="#000000" stroke="black" points="219.763,-46.1043 216.263,-36.1043 212.763,-46.1044 219.763,-46.1043"/>
</g>
<!-- pygame -->
<g id="node4" class="node"><title>pygame</title><style>.edge>path:hover{stroke-width:8}</style>
<ellipse fill="#ffffff" stroke="black" cx="254.263" cy="-234" rx="30.0436" ry="18"/>
<text text-anchor="middle" x="254.263" y="-231.5" font-family="Helvetica,sans-Serif" font-size="10.00" fill="#000000">pygame</text>
</g>
<!-- pygame&#45;&gt;connect_game -->
<g id="edge10" class="edge"><title>pygame&#45;&gt;connect_game</title><style>.edge>path:hover{stroke-width:8}</style>
<path fill="none" stroke="black" d="M268.197,-217.87C279.042,-204.482 292.263,-183.88 292.263,-163"/>
<path fill="none" stroke="black" d="M292.263,-161C292.263,-138.391 273.841,-121.076 255.136,-109.324"/>
<polygon fill="#000000" stroke="black" points="256.7,-106.184 246.3,-104.159 253.168,-112.227 256.7,-106.184"/>
</g>
<!-- pygame&#45;&gt;game_renderer -->
<g id="edge12" class="edge"><title>pygame&#45;&gt;game_renderer</title><style>.edge>path:hover{stroke-width:8}</style>
<path fill="none" stroke="black" d="M245.45,-216.765C240.977,-208.525 235.435,-198.317 230.386,-189.016"/>
<polygon fill="#000000" stroke="black" points="233.406,-187.243 225.559,-180.124 227.254,-190.582 233.406,-187.243"/>
</g>
<!-- pygame&#45;&gt;game -->
<g id="edge11" class="edge"><title>pygame&#45;&gt;game</title><style>.edge>path:hover{stroke-width:8}</style>
<path fill="none" stroke="black" d="M292.263,-161C292.263,-129.889 304.49,-119.608 292.263,-91"/>
</g>
<!-- game_renderer&#45;&gt;connect_game -->
<g id="edge8" class="edge"><title>game_renderer&#45;&gt;connect_game</title><style>.edge>path:hover{stroke-width:8}</style>
<path fill="none" stroke="black" d="M216.263,-143.697C216.263,-135.983 216.263,-126.712 216.263,-118.112"/>
<polygon fill="#000000" stroke="black" points="219.763,-118.104 216.263,-108.104 212.763,-118.104 219.763,-118.104"/>
</g>
<!-- game_renderer&#45;&gt;game -->
<g id="edge9" class="edge"><title>game_renderer&#45;&gt;game</title><style>.edge>path:hover{stroke-width:8}</style>
<path fill="none" stroke="black" d="M248.51,-148.38C273.796,-136.312 303.049,-116.237 292.263,-91"/>
<path fill="none" stroke="black" d="M292.263,-89C282.778,-66.8065 262.27,-48.6057 244.945,-36.3312"/>
<polygon fill="#000000" stroke="black" points="246.498,-33.1565 236.251,-30.4628 242.582,-38.9585 246.498,-33.1565"/>
</g>
<!-- pygame_locals -->
<g id="node7" class="node"><title>pygame_locals</title><style>.edge>path:hover{stroke-width:8}</style>
<ellipse fill="#ffffff" stroke="black" cx="367.263" cy="-162" rx="47.1863" ry="18"/>
<text text-anchor="middle" x="367.263" y="-159.5" font-family="Helvetica,sans-Serif" font-size="10.00" fill="#000000">pygame.locals</text>
</g>
<!-- pygame_locals&#45;&gt;game -->
<g id="edge13" class="edge"><title>pygame_locals&#45;&gt;game</title><style>.edge>path:hover{stroke-width:8}</style>
<path fill="none" stroke="black" d="M342.914,-146.326C325.126,-134.051 302.413,-114.748 292.263,-91"/>
</g>
</g>
</svg>
